<?xml version="1.0" standalone="no"?>
<!DOCTYPE svg PUBLIC "-//W3C//DTD SVG 20010904//EN"
 "http://www.w3.org/TR/2001/REC-SVG-20010904/DTD/svg10.dtd">
<svg version="1.0" xmlns="http://www.w3.org/2000/svg"
 width="390.000000pt" height="390.000000pt" viewBox="0 0 390.000000 390.000000"
 preserveAspectRatio="xMidYMid meet">
<metadata>
Created by potrace 1.11, written by Peter Selinger 2001-2013
</metadata>
<g transform="translate(0.000000,390.000000) scale(0.100000,-0.100000)"
fill="#000000" stroke="none">
<path d="M560 3590 l0 -120 -120 0 -120 0 0 -120 0 -120 -120 0 -120 0 0 -120
0 -121 118 3 117 3 3 118 3 117 119 0 120 0 0 -1285 0 -1285 1295 0 1295 0 0
-115 0 -115 115 0 114 0 3 112 3 113 118 3 117 3 0 114 0 115 -115 0 -115 0 0
1290 0 1290 -1295 0 -1294 0 -3 118 -3 117 -117 3 -118 3 0 -121z m810 -1550
l0 -540 -133 0 -134 0 -213 528 c-117 290 -215 533 -217 540 -4 9 69 12 346
12 l351 0 0 -540z m755 521 c-3 -11 -100 -252 -215 -538 l-209 -518 -135 -3
-136 -3 0 534 c0 294 3 537 7 540 3 4 161 7 350 7 334 0 344 -1 338 -19z m355
-521 l0 -540 -130 0 -130 0 0 540 0 540 130 0 130 0 0 -540z m279 509 c262
-67 450 -259 468 -480 24 -279 -253 -536 -609 -565 l-78 -7 0 543 0 542 73 -7
c39 -4 105 -16 146 -26z"/>
<path d="M3600 305 l0 -115 115 0 115 0 0 115 0 115 -115 0 -115 0 0 -115z"/>
</g>
</svg>
