<svg xmlns:dc="http://purl.org/dc/elements/1.1/" xmlns:cc="http://creativecommons.org/ns#" xmlns:rdf="http://www.w3.org/1999/02/22-rdf-syntax-ns#" xmlns:svg="http://www.w3.org/2000/svg" xmlns="http://www.w3.org/2000/svg" xmlns:sodipodi="http://sodipodi.sourceforge.net/DTD/sodipodi-0.dtd" xmlns:inkscape="http://www.inkscape.org/namespaces/inkscape" viewBox="0 0 389.76251 389.76251" height="389.76251" width="389.76251" xml:space="preserve" version="1.1" id="svg2" inkscape:version="0.91 r13725" sodipodi:docname="Webdrawings.svg"><sodipodi:namedview pagecolor="#ffffff" bordercolor="#666666" borderopacity="1" objecttolerance="10" gridtolerance="10" guidetolerance="10" inkscape:pageopacity="0" inkscape:pageshadow="2" inkscape:window-width="1920" inkscape:window-height="1017" id="namedview18" showgrid="false" inkscape:zoom="0.60549692" inkscape:cx="-255.40831" inkscape:cy="296.06797" inkscape:window-x="-8" inkscape:window-y="-8" inkscape:window-maximized="1" inkscape:current-layer="g12"/><metadata id="metadata8"><rdf:RDF><cc:Work rdf:about=""><dc:format>image/svg+xml</dc:format><dc:type rdf:resource="http://purl.org/dc/dcmitype/StillImage"/></cc:Work></rdf:RDF></metadata><defs id="defs6"/><g transform="matrix(1.25,0,0,-1.25,0,389.7625)" id="g10"><g transform="scale(0.1,0.1)" id="g12"><path id="path14" style="fill:#d8161c;fill-opacity:1;fill-rule:nonzero;stroke:none" d="m 2707.63,1053.43 0,1721.65 -2264.177,0 0,-2248.228 2264.177,0 0,526.578" inkscape:connector-curvature="0"/><path id="path16" style="fill:#ffffff;fill-opacity:1;fill-rule:nonzero;stroke:none" d="m 883.059,1199.02 210.591,0 0,861.02 -558.072,0"/><path id="path18" style="fill:#ffffff;fill-opacity:1;fill-rule:nonzero;stroke:none" d="m 1357.39,1199.02 -210.59,0 0,861.02 558.07,0"/><path id="path20" style="fill:#ffffff;fill-opacity:1;fill-rule:nonzero;stroke:none" d="m 1773.97,1199.02 207.281,0 0,861.02 -207.281,0 0,-861.02 z"/><path id="path22" style="fill:#ffffff;fill-opacity:1;fill-rule:nonzero;stroke:none" d="m 2031.74,2060.04 c 303.81,0 550.1,-192.75 550.1,-430.51 0,-237.77 -246.29,-430.51 -550.1,-430.51"/><path id="path24" style="fill:#d8161c;fill-opacity:1;fill-rule:nonzero;stroke:none" d="m 2514.52,339.77 191.34,0 0,191.332 -191.34,0 0,-191.332 z" inkscape:connector-curvature="0"/><path id="path26" style="fill:#d8161c;fill-opacity:1;fill-rule:nonzero;stroke:none" d="m 2702.31,524.02 191.34,0 0,191.34 -191.34,0 0,-191.34 z" inkscape:connector-curvature="0"/><path id="path28" style="fill:#d8161c;fill-opacity:1;fill-rule:nonzero;stroke:none" d="m 62.5469,2392.4 191.34,0 0,191.34 -191.34,0 0,-191.34 z" inkscape:connector-curvature="0"/><path id="path30" style="fill:#d8161c;fill-opacity:1;fill-rule:nonzero;stroke:none" d="m 253.887,2580.91 191.34,0 0,191.336 -191.34,0 0,-191.336 z" inkscape:connector-curvature="0"/><path id="path32" style="fill:#d8161c;fill-opacity:1;fill-rule:nonzero;stroke:none" d="m 445.227,2772.25 191.336,0 0,191.34 -191.336,0 0,-191.34 z" inkscape:connector-curvature="0"/><path id="path34" style="fill:#d8161c;fill-opacity:1;fill-rule:nonzero;stroke:none" d="m 2874.16,148.43 191.34,0 0,191.34 -191.34,0 0,-191.34 z" inkscape:connector-curvature="0"/></g></g></svg>